<!DOCTYPE svg PUBLIC "-//W3C//DTD SVG 1.1//EN" "http://www.w3.org/Graphics/SVG/1.1/DTD/svg11.dtd">
<!-- Uploaded to: SVG Repo, www.svgrepo.com, Transformed by: SVG Repo Mixer Tools -->
<svg width="800px" height="800px" viewBox="0 0 24 24" xmlns="http://www.w3.org/2000/svg" fill="#ff6200" stroke="#ff6200" stroke-width="0.00024000000000000003">
<g id="SVGRepo_bgCarrier" stroke-width="0"/>
<g id="SVGRepo_tracerCarrier" stroke-linecap="round" stroke-linejoin="round"/>
<g id="SVGRepo_iconCarrier"> <g> <path fill="none" d="M0 0h24v24H0z"/> <path d="M8 20v1.932a.5.5 0 0 1-.82.385l-4.12-3.433A.5.5 0 0 1 3.382 18H18a2 2 0 0 0 2-2V8h2v8a4 4 0 0 1-4 4H8zm8-16V2.068a.5.5 0 0 1 .82-.385l4.12 3.433a.5.5 0 0 1-.321.884H6a2 2 0 0 0-2 2v8H2V8a4 4 0 0 1 4-4h10zm-5 4h2v8h-2v-6H9V9l2-1z"/> </g> </g>
</svg>